# File created by Blade
# Date/Time:  Wed Jan 21 18:34:34 2015
#---------------------------------------------------------
:version 1.10
:name HOM
:units
  mass 1.0
  length 1.000000
  angle deg
:documentation
     Acclaim Skeleton File
:root
   axis xyz
   order TX TY TZ RX RY RZ
   position 0.000000 0.000000 0.000000
   orientation 0 0 0
:bonedata
   begin
      id 1
      name RightUpLeg_dum
      direction -1.000000 0.000000 0.000000
      length 3.693983
      axis 0.0 0.0 0.0 xyz
   end
   begin
      id 2
      name LeftUpLeg_dum
      direction 1.000000 0.000000 0.000000
      length 3.693983
      axis 0.0 0.0 0.0 xyz
   end
   begin
      id 3
      name Spine_dum
      direction 0.000000 1.000000 0.000000
      length 2.392956
      axis 0.0 0.0 0.0 xyz
   end
   begin
      id 4
      name RightUpLeg
      direction 0.000000 -1.000000 0.000000
      length 15.795667
      axis 0.0 0.0 0.0 xyz
      dof rx ry rz
   end
   begin
      id 5
      name RightLeg
      direction 0.000000 -1.000000 0.000000
      length 14.766989
      axis 0.0 0.0 0.0 xyz
      dof rx ry rz
   end
   begin
      id 6
      name RightFoot
      direction 0.000000 -0.258819 0.965926
      length 4.962790
      axis 15.0 0.0 0.0 xyz
      dof rx ry rz
   end
   begin
      id 7
      name RightToeBase
      direction 0.000000 0.000000 1.000000
      length 2.952750
      axis 0.0 0.0 0.0 xyz
      dof rx ry rz
   end
   begin
      id 8
      name LeftUpLeg
      direction 0.000000 -1.000000 0.000000
      length 15.795667
      axis 0.0 0.0 0.0 xyz
      dof rx ry rz
   end
   begin
      id 9
      name LeftLeg
      direction 0.000000 -1.000000 0.000000
      length 14.766989
      axis 0.0 0.0 0.0 xyz
      dof rx ry rz
   end
   begin
      id 10
      name LeftFoot
      direction 0.000000 -0.258819 0.965926
      length 4.962790
      axis 15.0 0.0 0.0 xyz
      dof rx ry rz
   end
   begin
      id 11
      name LeftToeBase
      direction 0.000000 0.000000 1.000000
      length 2.952750
      axis 0.0 0.0 0.0 xyz
      dof rx ry rz
   end
   begin
      id 12
      name Spine
      direction 0.000000 1.000000 0.000000
      length 0.000000
      axis 0.0 0.0 0.0 xyz
      dof rx ry rz
   end
   begin
      id 13
      name Spine_dum1
      direction 0.000000 1.000000 0.000000
      length 13.207411
      axis 0.0 0.0 0.0 xyz
   end
   begin
      id 14
      name Spine_dum2
      direction 0.000000 1.000000 0.000000
      length 13.207411
      axis 0.0 0.0 0.0 xyz
   end
   begin
      id 15
      name Spine_dum3
      direction 0.000000 1.000000 0.000000
      length 19.250100
      axis 0.0 0.0 0.0 xyz
   end
   begin
      id 16
      name RightShoulder
      direction -1.000000 0.000000 0.000000
      length 8.140465
      axis 0.0 0.0 90.0 xyz
      dof rx ry rz
   end
   begin
      id 17
      name RightArm
      direction -1.000000 0.000000 0.000000
      length 10.649840
      axis 0.0 0.0 90.0 xyz
      dof rx ry rz
   end
   begin
      id 18
      name RightForeArm
      direction -1.000000 0.000000 0.000000
      length 8.304624
      axis 0.0 0.0 90.0 xyz
      dof ry rz rx
   end
   begin
      id 19
      name RightHand
      direction -1.000000 0.000000 0.000000
      length 0.000000
      axis 0.0 0.0 90.0 xyz
      dof rx ry rz
   end
   begin
      id 20
      name RightHand_dum1
      direction -1.000000 0.000000 0.000000
      length 3.937000
      axis 0.0 0.0 90.0 xyz
   end
   begin
      id 21
      name RightHand_dum2
      direction 0.000000 0.000000 0.000000
      length 0.000000
      axis 0.0 0.0 90.0 xyz
   end
   begin
      id 22
      name RightHandThumb1
      direction 0.000000 0.000000 1.000000
      length 3.937000
      axis 0.0 0.0 90.0 xyz
      dof rx rz ry
   end
   begin
      id 23
      name LeftShoulder
      direction 1.000000 0.000000 0.000000
      length 8.140465
      axis 0.0 0.0 -90.0 xyz
      dof rx ry rz
   end
   begin
      id 24
      name LeftArm
      direction 1.000000 0.000000 0.000000
      length 10.649840
      axis 0.0 0.0 -90.0 xyz
      dof rx ry rz
   end
   begin
      id 25
      name LeftForeArm
      direction 1.000000 0.000000 0.000000
      length 8.304624
      axis 0.0 0.0 -90.0 xyz
      dof ry rz rx
   end
   begin
      id 26
      name LeftHand
      direction 1.000000 0.000000 0.000000
      length 0.000000
      axis 0.0 0.0 -90.0 xyz
      dof rx ry rz
   end
   begin
      id 27
      name LeftHand_dum1
      direction 1.000000 0.000000 0.000000
      length 3.937000
      axis 0.0 0.0 -90.0 xyz
   end
   begin
      id 28
      name LeftHand_dum2
      direction 0.000000 0.000000 0.000000
      length 0.000000
      axis 0.0 0.0 -90.0 xyz
   end
   begin
      id 29
      name LeftHandThumb1
      direction 0.000000 0.000000 1.000000
      length 3.937000
      axis 0.0 0.0 -90.0 xyz
      dof rx rz ry
   end
   begin
      id 30
      name Head
      direction 0.000000 1.000000 0.000000
      length 4.527550
      axis 0.0 0.0 0.0 xyz
      dof rx ry rz
   end
:hierarchy
   begin
      root RightUpLeg_dum LeftUpLeg_dum Spine_dum
      RightUpLeg_dum RightUpLeg
      LeftUpLeg_dum LeftUpLeg
      Spine_dum Spine
      RightUpLeg RightLeg
      RightLeg RightFoot
      RightFoot RightToeBase
      LeftUpLeg LeftLeg
      LeftLeg LeftFoot
      LeftFoot LeftToeBase
      Spine Spine_dum1 Spine_dum2 Spine_dum3
      Spine_dum1 RightShoulder
      Spine_dum2 LeftShoulder
      Spine_dum3 Head
      RightShoulder RightArm
      RightArm RightForeArm
      RightForeArm RightHand
      RightHand RightHand_dum1 RightHand_dum2
      RightHand_dum2 RightHandThumb1
      LeftShoulder LeftArm
      LeftArm LeftForeArm
      LeftForeArm LeftHand
      LeftHand LeftHand_dum1 LeftHand_dum2
      LeftHand_dum2 LeftHandThumb1
   end

# File created by Blade
# Date/Time:  Wed Jan 21 18:34:41 2015
# Frame Rate: 120.000 fps
#------------------------------------------------------
:FULLY-SPECIFIED
:DEGREES
378
root 2.488717 31.828434 -6.680950 187.005958 -75.872231 -135.784620
RightUpLeg -70.252687 21.957074 -17.777824
RightLeg 5.423153 -0.000000 -0.000000
RightFoot 34.956867 32.810033 48.874441
RightToeBase 31.707862 -0.000000 -0.000000
LeftUpLeg -36.537086 25.894675 -24.093754
LeftLeg -1.371845 -0.000000 0.000000
LeftFoot -19.977208 15.833174 -9.480640
LeftToeBase 2.054969 -0.000000 -0.000000
Spine -61.807327 -27.257113 46.678964
RightShoulder -30.807454 2.060787 -48.168214
RightArm -18.842734 -8.623281 45.425212
RightForeArm 5.466801 0.000000 -9.699564
RightHand 11.647618 -0.000000 -1.575118
RightHandThumb1 -24.326973 -0.000000 -32.862282
LeftShoulder 6.702738 -22.552525 41.529812
LeftArm 61.339333 3.947361 -43.660321
LeftForeArm 20.167647 -0.000000 2.191866
LeftHand -21.792118 0.000000 -7.955484
LeftHandThumb1 -26.253704 0.000000 33.147579
Head -3.945205 -36.831374 22.193297
379
root 2.493290 31.825715 -6.681469 187.304508 -75.773220 -136.078881
RightUpLeg -70.194416 21.957040 -17.666596
RightLeg 5.353405 -0.000000 -0.000000
RightFoot 35.084393 32.766307 48.962396
RightToeBase 31.531542 -0.000000 -0.000000
LeftUpLeg -36.535797 25.907076 -24.100560
LeftLeg -1.365253 -0.000000 0.000000
LeftFoot -20.000840 15.803702 -9.487812
LeftToeBase 2.011017 -0.000000 -0.000000
Spine -61.803162 -27.258332 46.680986
RightShoulder -30.782284 2.082878 -48.160862
RightArm -18.884697 -8.544791 45.397582
RightForeArm 5.511981 -0.000000 -9.681142
RightHand 11.462241 -0.000000 -1.553402
RightHandThumb1 -24.326973 -0.000000 -32.862282
LeftShoulder 6.685443 -22.385210 41.509731
LeftArm 61.201708 3.907549 -43.650497
LeftForeArm 20.149923 -0.000000 2.228948
LeftHand -21.904538 -0.000000 -8.000110
LeftHandThumb1 -26.253704 0.000000 33.147579
Head -3.869965 -36.743002 22.128459
380
root 2.498109 31.824180 -6.682170 187.567337 -75.679853 -136.322658
RightUpLeg -70.170243 21.988226 -17.660012
RightLeg 5.246698 -0.000000 -0.000000
RightFoot 35.120180 32.681255 48.978638
RightToeBase 31.354851 -0.000000 -0.000000
LeftUpLeg -36.560463 25.932694 -24.135505
LeftLeg -1.374761 -0.000000 0.000000
LeftFoot -20.005927 15.793373 -9.482444
LeftToeBase 1.990612 -0.000000 -0.000000
Spine -61.795690 -27.240595 46.676622
RightShoulder -30.774001 2.049534 -48.151321
RightArm -18.929924 -8.424109 45.391498
RightForeArm 5.634114 -0.000000 -9.599844
RightHand 11.425154 0.000000 -1.583900
RightHandThumb1 -24.326973 -0.000000 -32.862282
LeftShoulder 6.667490 -22.262476 41.482010
LeftArm 61.085049 3.944865 -43.554358
LeftForeArm 20.036817 -0.000000 2.184909
LeftHand -21.851237 -0.000000 -8.000115
LeftHandThumb1 -26.253704 0.000000 33.147579
Head -3.829320 -36.693601 22.084545
381
root 2.503075 31.823984 -6.682824 187.772972 -75.594951 -136.507944
RightUpLeg -70.117600 21.985319 -17.546924
RightLeg 5.164410 -0.000000 -0.000000
RightFoot 35.212185 32.644840 48.986835
RightToeBase 31.180335 -0.000000 -0.000000
LeftUpLeg -36.607598 25.990205 -24.189410
LeftLeg -1.365917 -0.000000 0.000000
LeftFoot -20.050496 15.725858 -9.529624
LeftToeBase 2.080163 -0.000000 -0.000000
Spine -61.785271 -27.220691 46.682352
RightShoulder -30.771719 2.019600 -48.136324
RightArm -18.979532 -8.319881 45.380937
RightForeArm 5.756200 0.000000 -9.526302
RightHand 11.459676 -0.000000 -1.658219
RightHandThumb1 -24.326973 -0.000000 -32.862282
LeftShoulder 6.642881 -22.140720 41.452563
LeftArm 60.937532 3.966863 -43.498184
LeftForeArm 20.018456 0.000000 2.183883
LeftHand -21.851577 -0.000000 -7.997624
LeftHandThumb1 -26.253704 0.000000 33.147579
Head -3.815097 -36.628208 22.053593
382
root 2.507806 31.825010 -6.682749 187.910945 -75.538269 -136.615979
RightUpLeg -70.043206 21.964320 -17.391656
RightLeg 5.078986 -0.000000 -0.000000
RightFoot 35.212018 32.635652 48.890889
RightToeBase 31.286926 -0.000000 -0.000000
LeftUpLeg -36.677525 26.055952 -24.265344
LeftLeg -1.363915 -0.000000 0.000000
LeftFoot -20.034942 15.663303 -9.518766
LeftToeBase 2.020847 -0.000000 -0.000000
Spine -61.785005 -27.199217 46.694162
RightShoulder -30.789157 1.999615 -48.095429
RightArm -18.982523 -8.336821 45.373153
RightForeArm 5.889607 -0.000000 -9.558866
RightHand 11.531978 -0.000000 -1.670437
RightHandThumb1 -24.326973 -0.000000 -32.862282
LeftShoulder 6.618222 -22.044063 41.441596
LeftArm 60.807044 3.999754 -43.477894
LeftForeArm 20.087549 -0.000000 2.143300
LeftHand -21.893112 -0.000000 -8.048162
LeftHandThumb1 -26.253704 0.000000 33.147579
Head -3.819491 -36.624405 22.039915
383
root 2.511272 31.826175 -6.682678 187.986602 -75.497790 -136.678946
RightUpLeg -69.965184 21.966999 -17.302237
RightLeg 4.972778 -0.000000 -0.000000
RightFoot 35.170699 32.561113 48.806295
RightToeBase 31.225390 -0.000000 -0.000000
LeftUpLeg -36.715763 26.109378 -24.316815
LeftLeg -1.368980 -0.000000 0.000000
LeftFoot -20.023839 15.616848 -9.514782
LeftToeBase 2.010138 -0.000000 -0.000000
Spine -61.770616 -27.186357 46.697167
RightShoulder -30.811680 1.956104 -48.075457
RightArm -18.980426 -8.325142 45.396024
RightForeArm 5.863445 -0.000000 -9.583621
RightHand 11.479804 -0.000000 -1.764044
RightHandThumb1 -24.326973 -0.000000 -32.862282
LeftShoulder 6.597909 -21.983428 41.424294
LeftArm 60.705596 4.118281 -43.356681
LeftForeArm 20.010281 -0.000000 2.024421
LeftHand -21.881610 0.000000 -8.155777
LeftHandThumb1 -26.253704 0.000000 33.147579
Head -3.838031 -36.658443 22.031432
384
root 2.514151 31.828185 -6.682884 188.014211 -75.479102 -136.694267
RightUpLeg -69.889646 21.966175 -17.219226
RightLeg 4.887307 -0.000000 -0.000000
RightFoot 35.057523 32.493973 48.679059
RightToeBase 31.214909 -0.000000 -0.000000
LeftUpLeg -36.755341 26.175915 -24.375077
LeftLeg -1.378989 -0.000000 0.000000
LeftFoot -20.001026 15.541567 -9.512281
LeftToeBase 2.027000 -0.000000 -0.000000
Spine -61.758310 -27.174500 46.695646
RightShoulder -30.842098 1.911313 -48.055973
RightArm -18.970042 -8.461945 45.458086
RightForeArm 5.899728 -0.000000 -9.671820
RightHand 11.547975 -0.000000 -1.580690
RightHandThumb1 -24.326973 -0.000000 -32.862282
LeftShoulder 6.574424 -21.890672 41.416222
LeftArm 60.614940 4.181039 -43.308336
LeftForeArm 20.022755 -0.000000 1.969627
LeftHand -21.929363 -0.000000 -8.249004
LeftHandThumb1 -26.253704 0.000000 33.147579
Head -3.870992 -36.706193 22.037800
385
root 2.517112 31.831441 -6.683392 187.928225 -75.484886 -136.594610
RightUpLeg -69.814059 21.951047 -17.132159
RightLeg 4.784845 -0.000000 -0.000000
RightFoot 34.994370 32.420437 48.577492
RightToeBase 31.278773 -0.000000 -0.000000
LeftUpLeg -36.785515 26.206714 -24.391027
LeftLeg -1.394014 -0.000000 0.000000
LeftFoot -19.958112 15.516405 -9.463855
LeftToeBase 2.008285 -0.000000 -0.000000
Spine -61.751775 -27.168995 46.713540
RightShoulder -30.872820 1.861837 -48.013270
RightArm -18.926145 -8.474823 45.451117
RightForeArm 5.711007 -0.000000 -9.826323
RightHand 11.679887 -0.000000 -1.476969
RightHandThumb1 -24.326973 -0.000000 -32.862282
LeftShoulder 6.569839 -21.848288 41.391126
LeftArm 60.454993 4.217254 -43.361149
LeftForeArm 20.104400 -0.000000 1.968171
LeftHand -22.011790 0.000000 -8.375837
LeftHandThumb1 -26.253704 0.000000 33.147579
Head -3.899548 -36.768597 22.047010
386
root 2.519275 31.834737 -6.684590 187.828595 -75.513294 -136.489492
RightUpLeg -69.732635 21.923432 -17.038491
RightLeg 4.708411 -0.000000 -0.000000
RightFoot 34.934093 32.350381 48.494325
RightToeBase 31.243128 -0.000000 -0.000000
LeftUpLeg -36.796795 26.231976 -24.394598
LeftLeg -1.400685 -0.000000 0.000000
LeftFoot -19.941067 15.408964 -9.523861
LeftToeBase 1.981923 -0.000000 -0.000000
Spine -61.753555 -27.173329 46.731965
RightShoulder -30.881395 1.808925 -47.989984
RightArm -18.935712 -8.533705 45.494544
RightForeArm 5.651301 -0.000000 -9.904180
RightHand 11.622225 -0.000000 -1.403453
RightHandThumb1 -24.326973 -0.000000 -32.862282
LeftShoulder 6.544269 -21.772443 41.379026
LeftArm 60.351780 4.255131 -43.400433
LeftForeArm 20.114549 -0.000000 1.897229
LeftHand -21.959679 0.000000 -8.362906
LeftHandThumb1 -26.253704 0.000000 33.147579
Head -3.929602 -36.819086 22.048843
387
root 2.520832 31.837848 -6.685793 187.680153 -75.558157 -136.345936
RightUpLeg -69.648491 21.898367 -16.938612
RightLeg 4.666798 -0.000000 -0.000000
RightFoot 34.783203 32.260062 48.366488
RightToeBase 31.292200 -0.000000 -0.000000
LeftUpLeg -36.794740 26.250128 -24.384704
LeftLeg -1.409045 -0.000000 0.000000
LeftFoot -19.903015 15.371553 -9.470915
LeftToeBase 2.044960 -0.000000 -0.000000
Spine -61.750216 -27.183127 46.750994
RightShoulder -30.870757 1.764208 -47.979416
RightArm -19.002046 -8.566719 45.542241
RightForeArm 5.707101 -0.000000 -9.926890
RightHand 11.544447 -0.000000 -1.382754
RightHandThumb1 -24.326973 -0.000000 -32.862282
LeftShoulder 6.520520 -21.720636 41.365945
LeftArm 60.207565 4.299641 -43.466960
LeftForeArm 20.049572 0.000000 1.872824
LeftHand -21.939835 0.000000 -8.428336
LeftHandThumb1 -26.253704 0.000000 33.147579
Head -3.971994 -36.835375 22.050894
